<svg xmlns="http://www.w3.org/2000/svg" xmlns:xlink="http://www.w3.org/1999/xlink" zoomAndPan="magnify" preserveAspectRatio="xMidYMid meet" version="1.0" viewBox="144.02 123.27 86.62 74.05"><defs><clipPath id="8ac204a0f5"><path d="M 177 123.265625 L 198 123.265625 L 198 144 L 177 144 Z M 177 123.265625 " clip-rule="nonzero"/></clipPath></defs><path fill="#000000" d="M 225.492188 133.851562 C 231.1875 138.136719 232.328125 146.289062 228.039062 151.96875 L 197.664062 192.175781 C 193.371094 197.859375 185.195312 199.007812 179.5 194.71875 C 173.804688 190.433594 172.65625 182.28125 176.953125 176.601562 L 207.328125 136.402344 C 211.613281 130.710938 219.785156 129.574219 225.492188 133.851562 Z M 225.492188 133.851562 " fill-opacity="0.8" fill-rule="evenodd"/><path fill="#000000" d="M 149.164062 133.851562 C 143.46875 138.136719 142.328125 146.289062 146.613281 151.96875 L 176.988281 192.175781 C 181.285156 197.859375 189.457031 199.007812 195.152344 194.71875 C 200.847656 190.433594 201.996094 182.28125 197.699219 176.601562 L 167.328125 136.402344 C 163.039062 130.710938 154.867188 129.574219 149.164062 133.851562 Z M 149.164062 133.851562 " fill-opacity="0.8" fill-rule="evenodd"/><g clip-path="url(#8ac204a0f5)"><path fill="#000000" d="M 187.328125 143.410156 C 186.664062 143.410156 186.007812 143.34375 185.359375 143.214844 C 184.707031 143.085938 184.078125 142.894531 183.464844 142.640625 C 182.855469 142.390625 182.273438 142.078125 181.722656 141.710938 C 181.171875 141.34375 180.660156 140.925781 180.191406 140.460938 C 179.722656 139.992188 179.304688 139.484375 178.9375 138.933594 C 178.570312 138.386719 178.257812 137.804688 178.003906 137.195312 C 177.75 136.585938 177.5625 135.953125 177.429688 135.308594 C 177.300781 134.660156 177.238281 134.003906 177.238281 133.34375 C 177.238281 132.683594 177.300781 132.027344 177.429688 131.378906 C 177.5625 130.730469 177.75 130.101562 178.003906 129.492188 C 178.257812 128.882812 178.570312 128.300781 178.9375 127.75 C 179.304688 127.203125 179.722656 126.695312 180.191406 126.226562 C 180.660156 125.757812 181.171875 125.339844 181.722656 124.972656 C 182.273438 124.605469 182.855469 124.296875 183.464844 124.042969 C 184.078125 123.792969 184.707031 123.601562 185.359375 123.472656 C 186.007812 123.34375 186.664062 123.277344 187.328125 123.277344 C 187.988281 123.277344 188.644531 123.34375 189.292969 123.472656 C 189.945312 123.601562 190.574219 123.792969 191.1875 124.042969 C 191.800781 124.296875 192.382812 124.605469 192.933594 124.972656 C 193.484375 125.339844 193.992188 125.757812 194.460938 126.226562 C 194.929688 126.695312 195.347656 127.203125 195.714844 127.75 C 196.082031 128.300781 196.394531 128.882812 196.648438 129.492188 C 196.902344 130.101562 197.09375 130.730469 197.222656 131.378906 C 197.351562 132.027344 197.414062 132.683594 197.414062 133.34375 C 197.414062 134.003906 197.351562 134.660156 197.222656 135.308594 C 197.09375 135.953125 196.902344 136.585938 196.648438 137.195312 C 196.394531 137.804688 196.082031 138.386719 195.714844 138.933594 C 195.347656 139.484375 194.929688 139.992188 194.460938 140.460938 C 193.992188 140.925781 193.484375 141.34375 192.933594 141.710938 C 192.382812 142.078125 191.800781 142.390625 191.1875 142.640625 C 190.574219 142.894531 189.945312 143.085938 189.292969 143.214844 C 188.644531 143.34375 187.988281 143.410156 187.328125 143.410156 Z M 187.328125 143.410156 " fill-opacity="1" fill-rule="nonzero"/></g></svg>